<svg width="137" height="16" viewBox="0 0 137 16" fill="none" xmlns="http://www.w3.org/2000/svg">
<path d="M44.7179 15.2952C43.3009 15.2952 42.0873 14.9869 41.077 14.3702C40.0668 13.747 39.2894 12.8811 38.7449 11.7725C38.207 10.6638 37.9381 9.37804 37.9381 7.91516C37.9381 6.45227 38.207 5.1665 38.7449 4.05785C39.2894 2.9492 40.0668 2.08656 41.077 1.46991C42.0873 0.846711 43.3009 0.53511 44.7179 0.53511C46.3513 0.53511 47.7125 0.945112 48.8015 1.76512C49.8905 2.57856 50.6547 3.67737 51.0942 5.06154L48.7031 5.72082C48.4276 4.79586 47.9585 4.07425 47.296 3.55601C46.6334 3.03121 45.774 2.7688 44.7179 2.7688C43.7667 2.7688 42.9729 2.982 42.3366 3.40841C41.7068 3.83481 41.2312 4.43505 40.9098 5.20914C40.5949 5.97666 40.4342 6.87867 40.4276 7.91516C40.4276 8.95164 40.585 9.85693 40.8999 10.631C41.2214 11.3985 41.7002 11.9955 42.3366 12.4219C42.9729 12.8483 43.7667 13.0615 44.7179 13.0615C45.774 13.0615 46.6334 12.7991 47.296 12.2743C47.9585 11.7495 48.4276 11.0279 48.7031 10.1095L51.0942 10.7688C50.6547 12.1529 49.8905 13.255 48.8015 14.075C47.7125 14.8885 46.3513 15.2952 44.7179 15.2952ZM58.6323 15.2952C57.2154 15.2952 56.0017 14.9869 54.9915 14.3702C53.9813 13.747 53.2039 12.8811 52.6594 11.7725C52.1215 10.6638 51.8525 9.37804 51.8525 7.91516C51.8525 6.45227 52.1215 5.1665 52.6594 4.05785C53.2039 2.9492 53.9813 2.08656 54.9915 1.46991C56.0017 0.846711 57.2154 0.53511 58.6323 0.53511C60.0493 0.53511 61.2629 0.846711 62.2731 1.46991C63.29 2.08656 64.0673 2.9492 64.6052 4.05785C65.1497 5.1665 65.422 6.45227 65.422 7.91516C65.422 9.37804 65.1497 10.6638 64.6052 11.7725C64.0673 12.8811 63.29 13.747 62.2731 14.3702C61.2629 14.9869 60.0493 15.2952 58.6323 15.2952ZM58.6323 13.0615C59.5835 13.0681 60.374 12.8581 61.0038 12.4317C61.6401 12.0053 62.1157 11.4051 62.4306 10.631C62.752 9.85693 62.9128 8.95164 62.9128 7.91516C62.9128 6.87867 62.752 5.97994 62.4306 5.21898C62.1157 4.45145 61.6401 3.85449 61.0038 3.42809C60.374 3.00169 59.5835 2.78192 58.6323 2.7688C57.6811 2.76224 56.8906 2.97216 56.2609 3.39857C55.6311 3.82497 55.1555 4.42521 54.8341 5.1993C54.5192 5.97338 54.3617 6.87867 54.3617 7.91516C54.3617 8.95164 54.5192 9.85365 54.8341 10.6212C55.1489 11.3821 55.6213 11.9758 56.251 12.4022C56.8874 12.8286 57.6811 13.0484 58.6323 13.0615ZM66.7656 15V0.830311H68.9009L73.8012 10.8672L78.7016 0.830311H80.8369V15H78.6229V5.91762L74.2736 15H73.3289L68.9894 5.91762V15H66.7656ZM82.9863 15V0.830311H85.1216L90.022 10.8672L94.9223 0.830311H97.0576V15H94.8436V5.91762L90.4943 15H89.5496L85.2102 5.91762V15H82.9863ZM104.914 15.2952C103.786 15.2952 102.792 15.0656 101.933 14.6064C101.08 14.1472 100.411 13.501 99.9254 12.6679C99.4465 11.8348 99.207 10.8573 99.207 9.73557V0.849991L101.608 0.830311V9.67653C101.608 10.2079 101.697 10.6835 101.874 11.1033C102.057 11.5232 102.303 11.8807 102.612 12.1759C102.92 12.4645 103.274 12.6843 103.674 12.8352C104.075 12.9861 104.488 13.0615 104.914 13.0615C105.354 13.0615 105.77 12.9861 106.164 12.8352C106.564 12.6777 106.918 12.4547 107.227 12.1661C107.535 11.8709 107.778 11.5133 107.955 11.0935C108.132 10.6737 108.221 10.2013 108.221 9.67653V0.830311H110.622V9.73557C110.622 10.8573 110.379 11.8348 109.893 12.6679C109.414 13.501 108.745 14.1472 107.886 14.6064C107.033 15.0656 106.043 15.2952 104.914 15.2952ZM116.161 15V3.05416H111.576V0.830311H123.118V3.05416H118.532V15H116.161Z" fill="white"/>
<path d="M124.076 15V0.830311H129.931C130.069 0.830311 130.246 0.836871 130.462 0.849991C130.679 0.856552 130.879 0.876232 131.063 0.909032C131.883 1.03367 132.558 1.30591 133.09 1.72576C133.628 2.1456 134.025 2.67696 134.28 3.31985C134.543 3.95617 134.674 4.66466 134.674 5.4453C134.674 6.59987 134.382 7.59371 133.798 8.42684C133.214 9.2534 132.319 9.76509 131.112 9.96189L130.098 10.0504H126.448V15H124.076ZM132.214 15L129.419 9.23372L131.83 8.70236L134.9 15H132.214ZM126.448 7.83644H129.833C129.964 7.83644 130.112 7.82988 130.276 7.81676C130.44 7.80363 130.59 7.77739 130.728 7.73803C131.122 7.63963 131.43 7.46579 131.653 7.21651C131.883 6.96723 132.043 6.68515 132.135 6.37027C132.234 6.05538 132.283 5.74706 132.283 5.4453C132.283 5.14354 132.234 4.83522 132.135 4.52033C132.043 4.19889 131.883 3.91353 131.653 3.66425C131.43 3.41497 131.122 3.24113 130.728 3.14273C130.59 3.10337 130.44 3.08041 130.276 3.07385C130.112 3.06073 129.964 3.05416 129.833 3.05416H126.448V7.83644Z" fill="#6DAF90"/>
<circle cx="3.44404" cy="3.44404" r="3.44404" transform="matrix(-1 -8.74228e-08 -8.74228e-08 1 6.88672 3.30273)" fill="#6DAF90"/>
<line x1="22.582" y1="7.11195" x2="9.37989" y2="7.11195" stroke="#6DAF90" stroke-width="0.727808"/>
<circle cx="3.11244" cy="3.11244" r="2.78481" transform="matrix(-1 -8.74228e-08 -8.74228e-08 1 31.293 3.63477)" stroke="#6DAF90" stroke-width="0.65525"/>
<ellipse cx="0.9866" cy="0.986601" rx="0.9866" ry="0.986601" transform="matrix(-1 -8.74228e-08 -8.74228e-08 1 29.3203 5.60742)" fill="#6DAF90"/>
</svg>
