<svg width="200" height="52" viewBox="0 0 200 52" fill="none" xmlns="http://www.w3.org/2000/svg">
<path d="M65.7273 26.4339C63.6447 26.4339 61.8609 25.9807 60.376 25.0744C58.8911 24.1584 57.7486 22.8856 56.9483 21.2561C56.1576 19.6266 55.7623 17.7368 55.7623 15.5866C55.7623 13.4365 56.1576 11.5466 56.9483 9.91713C57.7486 8.28763 58.8911 7.01971 60.376 6.11336C61.8609 5.19737 63.6447 4.73937 65.7273 4.73937C68.1282 4.73937 70.1289 5.342 71.7295 6.54725C73.3301 7.74286 74.4533 9.35789 75.0994 11.3924L71.5848 12.3614C71.1799 11.0019 70.4905 9.94123 69.5166 9.17951C68.5428 8.40815 67.2797 8.02247 65.7273 8.02247C64.3292 8.02247 63.1626 8.33584 62.2273 8.96257C61.3016 9.5893 60.6026 10.4715 60.1301 11.6093C59.6673 12.7374 59.4311 14.0632 59.4215 15.5866C59.4215 17.1101 59.6529 18.4407 60.1157 19.5784C60.5881 20.7065 61.292 21.584 62.2273 22.2107C63.1626 22.8374 64.3292 23.1508 65.7273 23.1508C67.2797 23.1508 68.5428 22.7651 69.5166 21.9937C70.4905 21.2224 71.1799 20.1618 71.5848 18.8119L75.0994 19.7809C74.4533 21.8154 73.3301 23.4352 71.7295 24.6405C70.1289 25.8361 68.1282 26.4339 65.7273 26.4339ZM86.1789 26.4339C84.0963 26.4339 82.3125 25.9807 80.8276 25.0744C79.3427 24.1584 78.2002 22.8856 77.3999 21.2561C76.6092 19.6266 76.2139 17.7368 76.2139 15.5866C76.2139 13.4365 76.6092 11.5466 77.3999 9.91713C78.2002 8.28763 79.3427 7.01971 80.8276 6.11336C82.3125 5.19737 84.0963 4.73937 86.1789 4.73937C88.2616 4.73937 90.0454 5.19737 91.5302 6.11336C93.0248 7.01971 94.1673 8.28763 94.958 9.91713C95.7583 11.5466 96.1584 13.4365 96.1584 15.5866C96.1584 17.7368 95.7583 19.6266 94.958 21.2561C94.1673 22.8856 93.0248 24.1584 91.5302 25.0744C90.0454 25.9807 88.2616 26.4339 86.1789 26.4339ZM86.1789 23.1508C87.577 23.1604 88.7389 22.8519 89.6645 22.2252C90.5998 21.5984 91.2988 20.7162 91.7617 19.5784C92.2341 18.4407 92.4703 17.1101 92.4703 15.5866C92.4703 14.0632 92.2341 12.7422 91.7617 11.6238C91.2988 10.4956 90.5998 9.61823 89.6645 8.9915C88.7389 8.36477 87.577 8.04176 86.1789 8.02247C84.7808 8.01283 83.619 8.32138 82.6933 8.94811C81.7677 9.57484 81.0687 10.4571 80.5962 11.5948C80.1334 12.7326 79.902 14.0632 79.902 15.5866C79.902 17.1101 80.1334 18.4358 80.5962 19.564C81.059 20.6824 81.7532 21.555 82.6789 22.1818C83.6142 22.8085 84.7808 23.1315 86.1789 23.1508ZM98.1333 26V5.17326H101.272L108.474 19.9255L115.677 5.17326H118.815V26H115.561V12.6506L109.169 26H107.78L101.402 12.6506V26H98.1333ZM121.975 26V5.17326H125.113L132.316 19.9255L139.518 5.17326H142.657V26H139.403V12.6506L133.01 26H131.621L125.243 12.6506V26H121.975ZM154.205 26.4339C152.546 26.4339 151.085 26.0964 149.822 25.4215C148.569 24.7465 147.585 23.7968 146.872 22.5723C146.168 21.3477 145.816 19.9111 145.816 18.2623V5.20219L149.345 5.17326V18.1755C149.345 18.9565 149.475 19.6556 149.736 20.2726C150.005 20.8897 150.367 21.4152 150.82 21.8491C151.273 22.2734 151.794 22.5964 152.382 22.8181C152.97 23.0399 153.578 23.1508 154.205 23.1508C154.851 23.1508 155.463 23.0399 156.041 22.8181C156.63 22.5867 157.15 22.2589 157.603 21.8347C158.057 21.4008 158.413 20.8753 158.674 20.2582C158.934 19.6411 159.064 18.9469 159.064 18.1755V5.17326H162.593V18.2623C162.593 19.9111 162.236 21.3477 161.523 22.5723C160.819 23.7968 159.836 24.7465 158.572 25.4215C157.319 26.0964 155.863 26.4339 154.205 26.4339ZM170.735 26V8.4419H163.995V5.17326H180.96V8.4419H174.221V26H170.735Z" fill="#1C273B"/>
<path d="M182.369 26V5.17326H190.975C191.177 5.17326 191.437 5.1829 191.756 5.20219C192.074 5.21183 192.368 5.24076 192.638 5.28897C193.843 5.47216 194.836 5.87231 195.617 6.48939C196.408 7.10648 196.991 7.88749 197.367 8.8324C197.753 9.76768 197.946 10.809 197.946 11.9564C197.946 13.6534 197.517 15.1142 196.659 16.3387C195.8 17.5536 194.484 18.3057 192.71 18.5949L191.22 18.7251H185.855V26H182.369ZM194.33 26L190.222 17.5247L193.766 16.7437L198.278 26H194.33ZM185.855 15.4709H190.83C191.023 15.4709 191.24 15.4613 191.481 15.442C191.722 15.4227 191.944 15.3841 192.146 15.3263C192.725 15.1817 193.178 14.9262 193.506 14.5598C193.843 14.1934 194.079 13.7788 194.214 13.3159C194.359 12.8531 194.431 12.3999 194.431 11.9564C194.431 11.5129 194.359 11.0597 194.214 10.5969C194.079 10.1244 193.843 9.705 193.506 9.33861C193.178 8.97221 192.725 8.7167 192.146 8.57207C191.944 8.51422 191.722 8.48047 191.481 8.47083C191.24 8.45154 191.023 8.4419 190.83 8.4419H185.855V15.4709Z" fill="#0F766E"/>
<circle cx="5.06208" cy="5.06208" r="5.06208" transform="matrix(-1 -8.74228e-08 -8.74228e-08 1 10.125 9.14893)" fill="#006C49"/>
<line x1="33.1875" y1="14.7458" x2="13.7829" y2="14.7458" stroke="#006C49" stroke-width="1.06974"/>
<circle cx="4.57469" cy="4.57469" r="4.09314" transform="matrix(-1 -8.74228e-08 -8.74228e-08 1 45.998 9.63623)" stroke="#006C49" stroke-width="0.963093"/>
<ellipse cx="1.45011" cy="1.45011" rx="1.45011" ry="1.45011" transform="matrix(-1 -8.74228e-08 -8.74228e-08 1 43.0977 12.5366)" fill="#006C49"/>
<path d="M41.9198 49.9155L40.4562 44.523H41.2804L42.3743 49.0142L43.63 44.523H44.4851L45.7023 49.0296L46.8116 44.523H47.6359L46.1491 49.9155H45.2478L44.0383 45.6246L42.798 49.9155H41.9198ZM50.3388 49.9155V44.523H53.7437V45.1547H51.1091V46.8803H53.5126V47.4966H51.1091V49.2838H53.7437V49.9155H50.3388ZM62.9196 50.008C62.4112 50.008 61.967 49.8924 61.5869 49.6613C61.2069 49.4302 60.9116 49.1067 60.701 48.6907C60.4905 48.2747 60.3852 47.7893 60.3852 47.2347C60.3852 46.6852 60.4905 46.1998 60.701 45.7787C60.9167 45.3576 61.2223 45.0289 61.6177 44.7927C62.0183 44.5513 62.4908 44.4306 63.0352 44.4306C63.6463 44.4306 64.1573 44.5795 64.5682 44.8774C64.9791 45.1701 65.2435 45.5784 65.3617 46.1023H64.4835C64.4064 45.8044 64.2446 45.5707 63.9981 45.4012C63.7516 45.2266 63.4281 45.1393 63.0275 45.1393C62.6474 45.1393 62.3162 45.2241 62.0337 45.3935C61.7564 45.563 61.5433 45.8044 61.3943 46.1177C61.2454 46.431 61.1709 46.8033 61.1709 47.2347C61.1709 47.6712 61.2454 48.0461 61.3943 48.3594C61.5433 48.6727 61.7538 48.9115 62.026 49.0758C62.2982 49.2402 62.6115 49.3224 62.9659 49.3224C63.5102 49.3224 63.9185 49.1657 64.1907 48.8524C64.4681 48.5392 64.6298 48.1206 64.676 47.5968H63.1893V47.0036H65.4541V49.9155H64.7531L64.6838 49.0912C64.5605 49.2915 64.4167 49.461 64.2524 49.5997C64.0931 49.7332 63.9057 49.8359 63.69 49.9078C63.4743 49.9746 63.2175 50.008 62.9196 50.008ZM70.8324 50.008C70.3137 50.008 69.8566 49.8924 69.4612 49.6613C69.0709 49.4251 68.7627 49.099 68.5368 48.683C68.3159 48.2618 68.2055 47.7739 68.2055 47.2193C68.2055 46.6698 68.3159 46.187 68.5368 45.771C68.7627 45.3499 69.0709 45.0212 69.4612 44.785C69.8566 44.5487 70.3137 44.4306 70.8324 44.4306C71.3614 44.4306 71.8236 44.5487 72.2191 44.785C72.6145 45.0212 72.9201 45.3499 73.1358 45.771C73.3566 46.187 73.467 46.6698 73.467 47.2193C73.467 47.7739 73.3566 48.2618 73.1358 48.683C72.9201 49.099 72.6145 49.4251 72.2191 49.6613C71.8236 49.8924 71.3614 50.008 70.8324 50.008ZM70.8401 49.3224C71.2099 49.3224 71.5334 49.2376 71.8108 49.0681C72.0881 48.8987 72.3012 48.6573 72.4502 48.344C72.6042 48.0307 72.6813 47.6558 72.6813 47.2193C72.6813 46.7827 72.6042 46.4078 72.4502 46.0946C72.3012 45.7813 72.0881 45.5425 71.8108 45.3781C71.5334 45.2087 71.2099 45.1239 70.8401 45.1239C70.4704 45.1239 70.1468 45.2087 69.8695 45.3781C69.5922 45.5425 69.3765 45.7813 69.2224 46.0946C69.0683 46.4078 68.9913 46.7827 68.9913 47.2193C68.9913 47.6558 69.0683 48.0307 69.2224 48.344C69.3765 48.6573 69.5922 48.8987 69.8695 49.0681C70.1468 49.2376 70.4704 49.3224 70.8401 49.3224ZM81.4955 49.9155V45.1547H79.9009V44.523H83.8682V45.1547H82.2659V49.9155H81.4955ZM90.0138 49.9155V44.523H90.7841V49.9155H90.0138ZM86.5857 49.9155V44.523H87.3561V49.9155H86.5857ZM87.2251 47.4812V46.8495H90.1833V47.4812H87.2251ZM93.8493 49.9155V44.523H97.2543V45.1547H94.6197V46.8803H97.0232V47.4966H94.6197V49.2838H97.2543V49.9155H93.8493ZM104.096 49.9155V44.523H105.752C106.379 44.523 106.898 44.6335 107.308 44.8543C107.719 45.0751 108.022 45.3884 108.217 45.7941C108.418 46.1947 108.518 46.6723 108.518 47.227C108.518 47.7816 108.418 48.2593 108.217 48.6598C108.022 49.0604 107.719 49.3711 107.308 49.592C106.903 49.8077 106.384 49.9155 105.752 49.9155H104.096ZM104.866 49.2684H105.721C106.22 49.2684 106.615 49.1863 106.908 49.0219C107.201 48.8576 107.409 48.6239 107.532 48.3209C107.66 48.0127 107.724 47.6481 107.724 47.227C107.724 46.8007 107.66 46.4335 107.532 46.1254C107.409 45.8172 107.201 45.581 106.908 45.4167C106.615 45.2523 106.22 45.1701 105.721 45.1701H104.866V49.2684ZM111.382 49.9155V44.523H112.153V49.9155H111.382ZM116.98 50.008C116.584 50.008 116.237 49.9386 115.94 49.8C115.642 49.6562 115.411 49.4559 115.246 49.1991C115.082 48.9423 115 48.6419 115 48.2978H115.809C115.814 48.4929 115.86 48.6727 115.947 48.837C116.04 48.9962 116.171 49.1246 116.34 49.2222C116.515 49.3147 116.728 49.3609 116.98 49.3609C117.195 49.3609 117.38 49.3249 117.534 49.253C117.693 49.1811 117.814 49.0835 117.896 48.9603C117.978 48.8319 118.019 48.6855 118.019 48.5212C118.019 48.3312 117.976 48.1745 117.889 48.0513C117.801 47.928 117.683 47.8279 117.534 47.7508C117.39 47.6687 117.221 47.5968 117.026 47.5351C116.836 47.4735 116.635 47.4067 116.425 47.3348C115.999 47.1962 115.68 47.0164 115.47 46.7956C115.264 46.5748 115.161 46.2872 115.161 45.9328C115.161 45.6298 115.233 45.3679 115.377 45.147C115.521 44.9211 115.721 44.7464 115.978 44.6232C116.24 44.4948 116.548 44.4306 116.902 44.4306C117.252 44.4306 117.557 44.4948 117.819 44.6232C118.081 44.7516 118.287 44.9288 118.435 45.1547C118.584 45.3807 118.659 45.6452 118.659 45.9482H117.842C117.842 45.8095 117.806 45.6734 117.734 45.5399C117.663 45.4064 117.555 45.2985 117.411 45.2164C117.267 45.1291 117.09 45.0854 116.879 45.0854C116.705 45.0803 116.548 45.1085 116.409 45.1701C116.271 45.2318 116.163 45.3216 116.086 45.4398C116.009 45.5579 115.97 45.6991 115.97 45.8635C115.97 46.0278 116.004 46.1613 116.07 46.264C116.142 46.3616 116.245 46.4464 116.379 46.5183C116.512 46.5902 116.666 46.6569 116.841 46.7186C117.021 46.775 117.218 46.8392 117.434 46.9111C117.701 46.9984 117.937 47.1063 118.143 47.2347C118.353 47.3579 118.518 47.5197 118.636 47.72C118.759 47.9152 118.821 48.1668 118.821 48.475C118.821 48.742 118.751 48.9911 118.613 49.2222C118.474 49.4533 118.269 49.6433 117.996 49.7923C117.724 49.9361 117.385 50.008 116.98 50.008ZM122.824 49.9155V45.1547H121.23V44.523H125.197V45.1547H123.595V49.9155H122.824ZM126.974 49.9155L128.953 44.523H129.793L131.773 49.9155H130.949L129.369 45.4475L127.782 49.9155H126.974ZM127.867 48.5828L128.083 47.9665H130.617L130.833 48.5828H127.867ZM134.479 49.9155V44.523H135.249L137.999 48.6598V44.523H138.769V49.9155H137.999L135.249 45.7864V49.9155H134.479ZM144.198 50.008C143.669 50.008 143.211 49.8924 142.826 49.6613C142.446 49.4251 142.151 49.099 141.94 48.683C141.735 48.2618 141.632 47.7739 141.632 47.2193C141.632 46.6698 141.735 46.1844 141.94 45.7633C142.151 45.3422 142.446 45.0161 142.826 44.785C143.211 44.5487 143.669 44.4306 144.198 44.4306C144.829 44.4306 145.34 44.5821 145.731 44.8851C146.126 45.1881 146.378 45.6144 146.485 46.1639H145.638C145.561 45.8455 145.402 45.5913 145.16 45.4012C144.924 45.2112 144.603 45.1162 144.198 45.1162C143.833 45.1162 143.517 45.201 143.25 45.3704C142.983 45.5399 142.778 45.7813 142.634 46.0946C142.49 46.4078 142.418 46.7827 142.418 47.2193C142.418 47.6558 142.49 48.0333 142.634 48.3517C142.778 48.665 142.983 48.9064 143.25 49.0758C143.517 49.2402 143.833 49.3224 144.198 49.3224C144.603 49.3224 144.924 49.2325 145.16 49.0527C145.402 48.8678 145.561 48.6188 145.638 48.3055H146.485C146.378 48.8396 146.126 49.2582 145.731 49.5612C145.34 49.859 144.829 50.008 144.198 50.008ZM149.344 49.9155V44.523H152.749V45.1547H150.115V46.8803H152.518V47.4966H150.115V49.2838H152.749V49.9155H149.344Z" fill="#006C49"/>
<line x1="4.37114e-08" y1="36.0962" x2="199.451" y2="36.0962" stroke="#E8E8E8"/>
</svg>
